<mxfile host="app.diagrams.net" agent="Mozilla/5.0 (Windows NT 10.0; Win64; x64) AppleWebKit/537.36 (KHTML, like Gecko) Chrome/130.0.0.0 Safari/537.36" version="24.8.3">
  <diagram id="R2lEEEUBdFMjLlhIrx00" name="Page-1">
    <mxGraphModel dx="796" dy="745" grid="1" gridSize="10" guides="1" tooltips="1" connect="1" arrows="1" fold="1" page="1" pageScale="1" pageWidth="850" pageHeight="1100" math="0" shadow="0" extFonts="Permanent Marker^https://fonts.googleapis.com/css?family=Permanent+Marker">
      <root>
        <mxCell id="0" />
        <mxCell id="1" parent="0" />
        <mxCell id="C-vyLk0tnHw3VtMMgP7b-12" value="" style="edgeStyle=entityRelationEdgeStyle;endArrow=ERzeroToMany;startArrow=ERone;endFill=1;startFill=0;exitX=1.009;exitY=0.257;exitDx=0;exitDy=0;exitPerimeter=0;entryX=0;entryY=0.5;entryDx=0;entryDy=0;" parent="1" source="C-vyLk0tnHw3VtMMgP7b-24" target="q6tROnJzdhaLit0iesR--12" edge="1">
          <mxGeometry width="100" height="100" relative="1" as="geometry">
            <mxPoint x="400" y="180" as="sourcePoint" />
            <mxPoint x="560" y="155" as="targetPoint" />
            <Array as="points">
              <mxPoint x="450" y="320" />
              <mxPoint x="500" y="310" />
            </Array>
          </mxGeometry>
        </mxCell>
        <mxCell id="C-vyLk0tnHw3VtMMgP7b-2" value="Ratings" style="shape=table;startSize=30;container=1;collapsible=1;childLayout=tableLayout;fixedRows=1;rowLines=0;fontStyle=1;align=center;resizeLast=1;" parent="1" vertex="1">
          <mxGeometry x="530" y="310" width="290" height="170" as="geometry" />
        </mxCell>
        <mxCell id="C-vyLk0tnHw3VtMMgP7b-3" value="" style="shape=partialRectangle;collapsible=0;dropTarget=0;pointerEvents=0;fillColor=none;points=[[0,0.5],[1,0.5]];portConstraint=eastwest;top=0;left=0;right=0;bottom=1;" parent="C-vyLk0tnHw3VtMMgP7b-2" vertex="1">
          <mxGeometry y="30" width="290" height="70" as="geometry" />
        </mxCell>
        <mxCell id="C-vyLk0tnHw3VtMMgP7b-4" value="id serial&#xa;PK&#xa;unique" style="shape=partialRectangle;overflow=hidden;connectable=0;fillColor=none;top=0;left=0;bottom=0;right=0;fontStyle=1;" parent="C-vyLk0tnHw3VtMMgP7b-3" vertex="1">
          <mxGeometry width="100" height="70" as="geometry">
            <mxRectangle width="100" height="70" as="alternateBounds" />
          </mxGeometry>
        </mxCell>
        <mxCell id="C-vyLk0tnHw3VtMMgP7b-5" value="book_id **Â &#xa;integer&#xa;not null&#xa;" style="shape=partialRectangle;overflow=hidden;connectable=0;fillColor=none;top=0;left=0;bottom=0;right=0;align=center;spacingLeft=6;fontStyle=1;fontSize=12;" parent="C-vyLk0tnHw3VtMMgP7b-3" vertex="1">
          <mxGeometry x="100" width="85" height="70" as="geometry">
            <mxRectangle width="85" height="70" as="alternateBounds" />
          </mxGeometry>
        </mxCell>
        <mxCell id="q6tROnJzdhaLit0iesR--7" value="rating&#xa;integer&#xa;not null" style="shape=partialRectangle;overflow=hidden;connectable=0;fillColor=none;top=0;left=0;bottom=0;right=0;align=center;spacingLeft=6;fontStyle=5;" parent="C-vyLk0tnHw3VtMMgP7b-3" vertex="1">
          <mxGeometry x="185" width="105" height="70" as="geometry">
            <mxRectangle width="105" height="70" as="alternateBounds" />
          </mxGeometry>
        </mxCell>
        <mxCell id="C-vyLk0tnHw3VtMMgP7b-6" value="" style="shape=partialRectangle;collapsible=0;dropTarget=0;pointerEvents=0;fillColor=none;points=[[0,0.5],[1,0.5]];portConstraint=eastwest;top=0;left=0;right=0;bottom=0;" parent="C-vyLk0tnHw3VtMMgP7b-2" vertex="1">
          <mxGeometry y="100" width="290" height="30" as="geometry" />
        </mxCell>
        <mxCell id="C-vyLk0tnHw3VtMMgP7b-7" value="" style="shape=partialRectangle;overflow=hidden;connectable=0;fillColor=none;top=0;left=0;bottom=0;right=0;" parent="C-vyLk0tnHw3VtMMgP7b-6" vertex="1">
          <mxGeometry width="100" height="30" as="geometry">
            <mxRectangle width="100" height="30" as="alternateBounds" />
          </mxGeometry>
        </mxCell>
        <mxCell id="C-vyLk0tnHw3VtMMgP7b-8" value="" style="shape=partialRectangle;overflow=hidden;connectable=0;fillColor=none;top=0;left=0;bottom=0;right=0;align=left;spacingLeft=6;" parent="C-vyLk0tnHw3VtMMgP7b-6" vertex="1">
          <mxGeometry x="100" width="85" height="30" as="geometry">
            <mxRectangle width="85" height="30" as="alternateBounds" />
          </mxGeometry>
        </mxCell>
        <mxCell id="q6tROnJzdhaLit0iesR--8" style="shape=partialRectangle;overflow=hidden;connectable=0;fillColor=none;top=0;left=0;bottom=0;right=0;align=left;spacingLeft=6;" parent="C-vyLk0tnHw3VtMMgP7b-6" vertex="1">
          <mxGeometry x="185" width="105" height="30" as="geometry">
            <mxRectangle width="105" height="30" as="alternateBounds" />
          </mxGeometry>
        </mxCell>
        <mxCell id="C-vyLk0tnHw3VtMMgP7b-9" value="" style="shape=partialRectangle;collapsible=0;dropTarget=0;pointerEvents=0;fillColor=none;points=[[0,0.5],[1,0.5]];portConstraint=eastwest;top=0;left=0;right=0;bottom=0;" parent="C-vyLk0tnHw3VtMMgP7b-2" vertex="1">
          <mxGeometry y="130" width="290" height="30" as="geometry" />
        </mxCell>
        <mxCell id="C-vyLk0tnHw3VtMMgP7b-10" value="" style="shape=partialRectangle;overflow=hidden;connectable=0;fillColor=none;top=0;left=0;bottom=0;right=0;" parent="C-vyLk0tnHw3VtMMgP7b-9" vertex="1">
          <mxGeometry width="100" height="30" as="geometry">
            <mxRectangle width="100" height="30" as="alternateBounds" />
          </mxGeometry>
        </mxCell>
        <mxCell id="C-vyLk0tnHw3VtMMgP7b-11" value="" style="shape=partialRectangle;overflow=hidden;connectable=0;fillColor=none;top=0;left=0;bottom=0;right=0;align=left;spacingLeft=6;" parent="C-vyLk0tnHw3VtMMgP7b-9" vertex="1">
          <mxGeometry x="100" width="85" height="30" as="geometry">
            <mxRectangle width="85" height="30" as="alternateBounds" />
          </mxGeometry>
        </mxCell>
        <mxCell id="q6tROnJzdhaLit0iesR--9" style="shape=partialRectangle;overflow=hidden;connectable=0;fillColor=none;top=0;left=0;bottom=0;right=0;align=left;spacingLeft=6;" parent="C-vyLk0tnHw3VtMMgP7b-9" vertex="1">
          <mxGeometry x="185" width="105" height="30" as="geometry">
            <mxRectangle width="105" height="30" as="alternateBounds" />
          </mxGeometry>
        </mxCell>
        <mxCell id="C-vyLk0tnHw3VtMMgP7b-23" value="books" style="shape=table;startSize=30;container=1;collapsible=1;childLayout=tableLayout;fixedRows=1;rowLines=0;fontStyle=1;align=center;resizeLast=1;" parent="1" vertex="1">
          <mxGeometry x="50" y="120" width="270" height="220" as="geometry">
            <mxRectangle x="120" y="120" width="70" height="30" as="alternateBounds" />
          </mxGeometry>
        </mxCell>
        <mxCell id="C-vyLk0tnHw3VtMMgP7b-24" value="" style="shape=partialRectangle;collapsible=0;dropTarget=0;pointerEvents=0;fillColor=none;points=[[0,0.5],[1,0.5]];portConstraint=eastwest;top=0;left=0;right=0;bottom=1;" parent="C-vyLk0tnHw3VtMMgP7b-23" vertex="1">
          <mxGeometry y="30" width="270" height="70" as="geometry" />
        </mxCell>
        <mxCell id="q6tROnJzdhaLit0iesR--3" value="id **&#xa;PK&#xa;unique" style="shape=partialRectangle;overflow=hidden;connectable=0;fillColor=none;top=0;left=0;bottom=0;right=0;fontStyle=1;" parent="C-vyLk0tnHw3VtMMgP7b-24" vertex="1">
          <mxGeometry width="50" height="70" as="geometry">
            <mxRectangle width="50" height="70" as="alternateBounds" />
          </mxGeometry>
        </mxCell>
        <mxCell id="C-vyLk0tnHw3VtMMgP7b-25" value="book_name&#xa;varchar(100)&#xa;unique not null" style="shape=partialRectangle;overflow=hidden;connectable=0;fillColor=none;top=0;left=0;bottom=0;right=0;fontStyle=1;" parent="C-vyLk0tnHw3VtMMgP7b-24" vertex="1">
          <mxGeometry x="50" width="130" height="70" as="geometry">
            <mxRectangle width="130" height="70" as="alternateBounds" />
          </mxGeometry>
        </mxCell>
        <mxCell id="C-vyLk0tnHw3VtMMgP7b-26" value="author&#xa;varchar(100)&#xa;not null" style="shape=partialRectangle;overflow=hidden;connectable=0;fillColor=none;top=0;left=0;bottom=0;right=0;align=center;spacingLeft=6;fontStyle=5;" parent="C-vyLk0tnHw3VtMMgP7b-24" vertex="1">
          <mxGeometry x="180" width="90" height="70" as="geometry">
            <mxRectangle width="90" height="70" as="alternateBounds" />
          </mxGeometry>
        </mxCell>
        <mxCell id="C-vyLk0tnHw3VtMMgP7b-27" value="" style="shape=partialRectangle;collapsible=0;dropTarget=0;pointerEvents=0;fillColor=none;points=[[0,0.5],[1,0.5]];portConstraint=eastwest;top=0;left=0;right=0;bottom=0;" parent="C-vyLk0tnHw3VtMMgP7b-23" vertex="1">
          <mxGeometry y="100" width="270" height="120" as="geometry" />
        </mxCell>
        <mxCell id="q6tROnJzdhaLit0iesR--4" style="shape=partialRectangle;overflow=hidden;connectable=0;fillColor=none;top=0;left=0;bottom=0;right=0;" parent="C-vyLk0tnHw3VtMMgP7b-27" vertex="1">
          <mxGeometry width="50" height="120" as="geometry">
            <mxRectangle width="50" height="120" as="alternateBounds" />
          </mxGeometry>
        </mxCell>
        <mxCell id="C-vyLk0tnHw3VtMMgP7b-28" value="" style="shape=partialRectangle;overflow=hidden;connectable=0;fillColor=none;top=0;left=0;bottom=0;right=0;" parent="C-vyLk0tnHw3VtMMgP7b-27" vertex="1">
          <mxGeometry x="50" width="130" height="120" as="geometry">
            <mxRectangle width="130" height="120" as="alternateBounds" />
          </mxGeometry>
        </mxCell>
        <mxCell id="C-vyLk0tnHw3VtMMgP7b-29" value="" style="shape=partialRectangle;overflow=hidden;connectable=0;fillColor=none;top=0;left=0;bottom=0;right=0;align=left;spacingLeft=6;" parent="C-vyLk0tnHw3VtMMgP7b-27" vertex="1">
          <mxGeometry x="180" width="90" height="120" as="geometry">
            <mxRectangle width="90" height="120" as="alternateBounds" />
          </mxGeometry>
        </mxCell>
        <mxCell id="C-vyLk0tnHw3VtMMgP7b-1" value="" style="edgeStyle=entityRelationEdgeStyle;endArrow=ERzeroToMany;startArrow=ERone;endFill=1;startFill=0;exitX=0.006;exitY=0.733;exitDx=0;exitDy=0;exitPerimeter=0;" parent="1" source="C-vyLk0tnHw3VtMMgP7b-3" target="C-vyLk0tnHw3VtMMgP7b-24" edge="1">
          <mxGeometry width="100" height="100" relative="1" as="geometry">
            <mxPoint x="340" y="720" as="sourcePoint" />
            <mxPoint x="440" y="620" as="targetPoint" />
          </mxGeometry>
        </mxCell>
        <mxCell id="q6tROnJzdhaLit0iesR--11" value="Notes" style="shape=table;startSize=30;container=1;collapsible=1;childLayout=tableLayout;fixedRows=1;rowLines=0;fontStyle=1;align=center;resizeLast=1;" parent="1" vertex="1">
          <mxGeometry x="520" y="80" width="290" height="160" as="geometry" />
        </mxCell>
        <mxCell id="q6tROnJzdhaLit0iesR--12" value="" style="shape=partialRectangle;collapsible=0;dropTarget=0;pointerEvents=0;fillColor=none;points=[[0,0.5],[1,0.5]];portConstraint=eastwest;top=0;left=0;right=0;bottom=1;" parent="q6tROnJzdhaLit0iesR--11" vertex="1">
          <mxGeometry y="30" width="290" height="70" as="geometry" />
        </mxCell>
        <mxCell id="q6tROnJzdhaLit0iesR--13" value="id serial&#xa;PK&#xa;unique" style="shape=partialRectangle;overflow=hidden;connectable=0;fillColor=none;top=0;left=0;bottom=0;right=0;fontStyle=1;" parent="q6tROnJzdhaLit0iesR--12" vertex="1">
          <mxGeometry width="100" height="70" as="geometry">
            <mxRectangle width="100" height="70" as="alternateBounds" />
          </mxGeometry>
        </mxCell>
        <mxCell id="q6tROnJzdhaLit0iesR--14" value="book_id **Â &#xa;integer&#xa;not null&#xa;" style="shape=partialRectangle;overflow=hidden;connectable=0;fillColor=none;top=0;left=0;bottom=0;right=0;align=center;spacingLeft=6;fontStyle=1;fontSize=12;" parent="q6tROnJzdhaLit0iesR--12" vertex="1">
          <mxGeometry x="100" width="85" height="70" as="geometry">
            <mxRectangle width="85" height="70" as="alternateBounds" />
          </mxGeometry>
        </mxCell>
        <mxCell id="q6tROnJzdhaLit0iesR--15" value="Note&#xa;text" style="shape=partialRectangle;overflow=hidden;connectable=0;fillColor=none;top=0;left=0;bottom=0;right=0;align=center;spacingLeft=6;fontStyle=5;" parent="q6tROnJzdhaLit0iesR--12" vertex="1">
          <mxGeometry x="185" width="105" height="70" as="geometry">
            <mxRectangle width="105" height="70" as="alternateBounds" />
          </mxGeometry>
        </mxCell>
        <mxCell id="q6tROnJzdhaLit0iesR--16" value="" style="shape=partialRectangle;collapsible=0;dropTarget=0;pointerEvents=0;fillColor=none;points=[[0,0.5],[1,0.5]];portConstraint=eastwest;top=0;left=0;right=0;bottom=0;" parent="q6tROnJzdhaLit0iesR--11" vertex="1">
          <mxGeometry y="100" width="290" height="30" as="geometry" />
        </mxCell>
        <mxCell id="q6tROnJzdhaLit0iesR--17" value="" style="shape=partialRectangle;overflow=hidden;connectable=0;fillColor=none;top=0;left=0;bottom=0;right=0;" parent="q6tROnJzdhaLit0iesR--16" vertex="1">
          <mxGeometry width="100" height="30" as="geometry">
            <mxRectangle width="100" height="30" as="alternateBounds" />
          </mxGeometry>
        </mxCell>
        <mxCell id="q6tROnJzdhaLit0iesR--18" value="" style="shape=partialRectangle;overflow=hidden;connectable=0;fillColor=none;top=0;left=0;bottom=0;right=0;align=left;spacingLeft=6;" parent="q6tROnJzdhaLit0iesR--16" vertex="1">
          <mxGeometry x="100" width="85" height="30" as="geometry">
            <mxRectangle width="85" height="30" as="alternateBounds" />
          </mxGeometry>
        </mxCell>
        <mxCell id="q6tROnJzdhaLit0iesR--19" style="shape=partialRectangle;overflow=hidden;connectable=0;fillColor=none;top=0;left=0;bottom=0;right=0;align=left;spacingLeft=6;" parent="q6tROnJzdhaLit0iesR--16" vertex="1">
          <mxGeometry x="185" width="105" height="30" as="geometry">
            <mxRectangle width="105" height="30" as="alternateBounds" />
          </mxGeometry>
        </mxCell>
        <mxCell id="q6tROnJzdhaLit0iesR--20" value="" style="shape=partialRectangle;collapsible=0;dropTarget=0;pointerEvents=0;fillColor=none;points=[[0,0.5],[1,0.5]];portConstraint=eastwest;top=0;left=0;right=0;bottom=0;" parent="q6tROnJzdhaLit0iesR--11" vertex="1">
          <mxGeometry y="130" width="290" height="30" as="geometry" />
        </mxCell>
        <mxCell id="q6tROnJzdhaLit0iesR--21" value="" style="shape=partialRectangle;overflow=hidden;connectable=0;fillColor=none;top=0;left=0;bottom=0;right=0;" parent="q6tROnJzdhaLit0iesR--20" vertex="1">
          <mxGeometry width="100" height="30" as="geometry">
            <mxRectangle width="100" height="30" as="alternateBounds" />
          </mxGeometry>
        </mxCell>
        <mxCell id="q6tROnJzdhaLit0iesR--22" value="" style="shape=partialRectangle;overflow=hidden;connectable=0;fillColor=none;top=0;left=0;bottom=0;right=0;align=left;spacingLeft=6;" parent="q6tROnJzdhaLit0iesR--20" vertex="1">
          <mxGeometry x="100" width="85" height="30" as="geometry">
            <mxRectangle width="85" height="30" as="alternateBounds" />
          </mxGeometry>
        </mxCell>
        <mxCell id="q6tROnJzdhaLit0iesR--23" style="shape=partialRectangle;overflow=hidden;connectable=0;fillColor=none;top=0;left=0;bottom=0;right=0;align=left;spacingLeft=6;" parent="q6tROnJzdhaLit0iesR--20" vertex="1">
          <mxGeometry x="185" width="105" height="30" as="geometry">
            <mxRectangle width="105" height="30" as="alternateBounds" />
          </mxGeometry>
        </mxCell>
        <mxCell id="q6tROnJzdhaLit0iesR--38" value="wishlist" style="shape=table;startSize=30;container=1;collapsible=1;childLayout=tableLayout;fixedRows=1;rowLines=0;fontStyle=1;align=center;resizeLast=1;" parent="1" vertex="1">
          <mxGeometry x="460" y="550" width="360" height="220" as="geometry">
            <mxRectangle x="120" y="120" width="70" height="30" as="alternateBounds" />
          </mxGeometry>
        </mxCell>
        <mxCell id="q6tROnJzdhaLit0iesR--39" value="" style="shape=partialRectangle;collapsible=0;dropTarget=0;pointerEvents=0;fillColor=none;points=[[0,0.5],[1,0.5]];portConstraint=eastwest;top=0;left=0;right=0;bottom=1;" parent="q6tROnJzdhaLit0iesR--38" vertex="1">
          <mxGeometry y="30" width="360" height="70" as="geometry" />
        </mxCell>
        <mxCell id="q6tROnJzdhaLit0iesR--40" value="id&#xa;PK&#xa;unique" style="shape=partialRectangle;overflow=hidden;connectable=0;fillColor=none;top=0;left=0;bottom=0;right=0;fontStyle=1;" parent="q6tROnJzdhaLit0iesR--39" vertex="1">
          <mxGeometry width="50" height="70" as="geometry">
            <mxRectangle width="50" height="70" as="alternateBounds" />
          </mxGeometry>
        </mxCell>
        <mxCell id="q6tROnJzdhaLit0iesR--41" value="book_name&#xa;varchar(100)&#xa;unique not null" style="shape=partialRectangle;overflow=hidden;connectable=0;fillColor=none;top=0;left=0;bottom=0;right=0;fontStyle=1;" parent="q6tROnJzdhaLit0iesR--39" vertex="1">
          <mxGeometry x="50" width="130" height="70" as="geometry">
            <mxRectangle width="130" height="70" as="alternateBounds" />
          </mxGeometry>
        </mxCell>
        <mxCell id="q6tROnJzdhaLit0iesR--42" value="author&#xa;varchar(100)&#xa;not null" style="shape=partialRectangle;overflow=hidden;connectable=0;fillColor=none;top=0;left=0;bottom=0;right=0;align=center;spacingLeft=6;fontStyle=5;" parent="q6tROnJzdhaLit0iesR--39" vertex="1">
          <mxGeometry x="180" width="90" height="70" as="geometry">
            <mxRectangle width="90" height="70" as="alternateBounds" />
          </mxGeometry>
        </mxCell>
        <mxCell id="q6tROnJzdhaLit0iesR--43" value="api_id&#xa;varchar(100)" style="shape=partialRectangle;overflow=hidden;connectable=0;fillColor=none;top=0;left=0;bottom=0;right=0;align=center;spacingLeft=6;fontStyle=5;" parent="q6tROnJzdhaLit0iesR--39" vertex="1">
          <mxGeometry x="270" width="90" height="70" as="geometry">
            <mxRectangle width="90" height="70" as="alternateBounds" />
          </mxGeometry>
        </mxCell>
        <mxCell id="q6tROnJzdhaLit0iesR--44" value="" style="shape=partialRectangle;collapsible=0;dropTarget=0;pointerEvents=0;fillColor=none;points=[[0,0.5],[1,0.5]];portConstraint=eastwest;top=0;left=0;right=0;bottom=0;" parent="q6tROnJzdhaLit0iesR--38" vertex="1">
          <mxGeometry y="100" width="360" height="120" as="geometry" />
        </mxCell>
        <mxCell id="q6tROnJzdhaLit0iesR--45" style="shape=partialRectangle;overflow=hidden;connectable=0;fillColor=none;top=0;left=0;bottom=0;right=0;" parent="q6tROnJzdhaLit0iesR--44" vertex="1">
          <mxGeometry width="50" height="120" as="geometry">
            <mxRectangle width="50" height="120" as="alternateBounds" />
          </mxGeometry>
        </mxCell>
        <mxCell id="q6tROnJzdhaLit0iesR--46" value="" style="shape=partialRectangle;overflow=hidden;connectable=0;fillColor=none;top=0;left=0;bottom=0;right=0;" parent="q6tROnJzdhaLit0iesR--44" vertex="1">
          <mxGeometry x="50" width="130" height="120" as="geometry">
            <mxRectangle width="130" height="120" as="alternateBounds" />
          </mxGeometry>
        </mxCell>
        <mxCell id="q6tROnJzdhaLit0iesR--47" value="" style="shape=partialRectangle;overflow=hidden;connectable=0;fillColor=none;top=0;left=0;bottom=0;right=0;align=left;spacingLeft=6;" parent="q6tROnJzdhaLit0iesR--44" vertex="1">
          <mxGeometry x="180" width="90" height="120" as="geometry">
            <mxRectangle width="90" height="120" as="alternateBounds" />
          </mxGeometry>
        </mxCell>
        <mxCell id="q6tROnJzdhaLit0iesR--48" style="shape=partialRectangle;overflow=hidden;connectable=0;fillColor=none;top=0;left=0;bottom=0;right=0;align=left;spacingLeft=6;" parent="q6tROnJzdhaLit0iesR--44" vertex="1">
          <mxGeometry x="270" width="90" height="120" as="geometry">
            <mxRectangle width="90" height="120" as="alternateBounds" />
          </mxGeometry>
        </mxCell>
        <mxCell id="ALGpJ81ItxM9HrfpJqNL-1" value="completion_date" style="shape=table;startSize=30;container=1;collapsible=1;childLayout=tableLayout;fixedRows=1;rowLines=0;fontStyle=1;align=center;resizeLast=1;" parent="1" vertex="1">
          <mxGeometry x="30" y="390" width="395" height="170" as="geometry" />
        </mxCell>
        <mxCell id="ALGpJ81ItxM9HrfpJqNL-2" value="" style="shape=partialRectangle;collapsible=0;dropTarget=0;pointerEvents=0;fillColor=none;points=[[0,0.5],[1,0.5]];portConstraint=eastwest;top=0;left=0;right=0;bottom=1;" parent="ALGpJ81ItxM9HrfpJqNL-1" vertex="1">
          <mxGeometry y="30" width="395" height="70" as="geometry" />
        </mxCell>
        <mxCell id="ALGpJ81ItxM9HrfpJqNL-3" value="id serial&#xa;PK&#xa;unique" style="shape=partialRectangle;overflow=hidden;connectable=0;fillColor=none;top=0;left=0;bottom=0;right=0;fontStyle=1;" parent="ALGpJ81ItxM9HrfpJqNL-2" vertex="1">
          <mxGeometry width="100" height="70" as="geometry">
            <mxRectangle width="100" height="70" as="alternateBounds" />
          </mxGeometry>
        </mxCell>
        <mxCell id="ALGpJ81ItxM9HrfpJqNL-4" value="book_id **Â &#xa;integer&#xa;not null&#xa;" style="shape=partialRectangle;overflow=hidden;connectable=0;fillColor=none;top=0;left=0;bottom=0;right=0;align=center;spacingLeft=6;fontStyle=1;fontSize=12;" parent="ALGpJ81ItxM9HrfpJqNL-2" vertex="1">
          <mxGeometry x="100" width="85" height="70" as="geometry">
            <mxRectangle width="85" height="70" as="alternateBounds" />
          </mxGeometry>
        </mxCell>
        <mxCell id="ALGpJ81ItxM9HrfpJqNL-5" value="month&#xa;varchar(9)&#xa;not null" style="shape=partialRectangle;overflow=hidden;connectable=0;fillColor=none;top=0;left=0;bottom=0;right=0;align=center;spacingLeft=6;fontStyle=5;" parent="ALGpJ81ItxM9HrfpJqNL-2" vertex="1">
          <mxGeometry x="185" width="105" height="70" as="geometry">
            <mxRectangle width="105" height="70" as="alternateBounds" />
          </mxGeometry>
        </mxCell>
        <mxCell id="ALGpJ81ItxM9HrfpJqNL-15" value="year&#xa;integer&#xa;not null" style="shape=partialRectangle;overflow=hidden;connectable=0;fillColor=none;top=0;left=0;bottom=0;right=0;align=center;spacingLeft=6;fontStyle=5;" parent="ALGpJ81ItxM9HrfpJqNL-2" vertex="1">
          <mxGeometry x="290" width="105" height="70" as="geometry">
            <mxRectangle width="105" height="70" as="alternateBounds" />
          </mxGeometry>
        </mxCell>
        <mxCell id="ALGpJ81ItxM9HrfpJqNL-6" value="" style="shape=partialRectangle;collapsible=0;dropTarget=0;pointerEvents=0;fillColor=none;points=[[0,0.5],[1,0.5]];portConstraint=eastwest;top=0;left=0;right=0;bottom=0;" parent="ALGpJ81ItxM9HrfpJqNL-1" vertex="1">
          <mxGeometry y="100" width="395" height="30" as="geometry" />
        </mxCell>
        <mxCell id="ALGpJ81ItxM9HrfpJqNL-7" value="" style="shape=partialRectangle;overflow=hidden;connectable=0;fillColor=none;top=0;left=0;bottom=0;right=0;" parent="ALGpJ81ItxM9HrfpJqNL-6" vertex="1">
          <mxGeometry width="100" height="30" as="geometry">
            <mxRectangle width="100" height="30" as="alternateBounds" />
          </mxGeometry>
        </mxCell>
        <mxCell id="ALGpJ81ItxM9HrfpJqNL-8" value="" style="shape=partialRectangle;overflow=hidden;connectable=0;fillColor=none;top=0;left=0;bottom=0;right=0;align=left;spacingLeft=6;" parent="ALGpJ81ItxM9HrfpJqNL-6" vertex="1">
          <mxGeometry x="100" width="85" height="30" as="geometry">
            <mxRectangle width="85" height="30" as="alternateBounds" />
          </mxGeometry>
        </mxCell>
        <mxCell id="ALGpJ81ItxM9HrfpJqNL-9" style="shape=partialRectangle;overflow=hidden;connectable=0;fillColor=none;top=0;left=0;bottom=0;right=0;align=left;spacingLeft=6;" parent="ALGpJ81ItxM9HrfpJqNL-6" vertex="1">
          <mxGeometry x="185" width="105" height="30" as="geometry">
            <mxRectangle width="105" height="30" as="alternateBounds" />
          </mxGeometry>
        </mxCell>
        <mxCell id="ALGpJ81ItxM9HrfpJqNL-16" style="shape=partialRectangle;overflow=hidden;connectable=0;fillColor=none;top=0;left=0;bottom=0;right=0;align=left;spacingLeft=6;" parent="ALGpJ81ItxM9HrfpJqNL-6" vertex="1">
          <mxGeometry x="290" width="105" height="30" as="geometry">
            <mxRectangle width="105" height="30" as="alternateBounds" />
          </mxGeometry>
        </mxCell>
        <mxCell id="ALGpJ81ItxM9HrfpJqNL-10" value="" style="shape=partialRectangle;collapsible=0;dropTarget=0;pointerEvents=0;fillColor=none;points=[[0,0.5],[1,0.5]];portConstraint=eastwest;top=0;left=0;right=0;bottom=0;" parent="ALGpJ81ItxM9HrfpJqNL-1" vertex="1">
          <mxGeometry y="130" width="395" height="30" as="geometry" />
        </mxCell>
        <mxCell id="ALGpJ81ItxM9HrfpJqNL-11" value="" style="shape=partialRectangle;overflow=hidden;connectable=0;fillColor=none;top=0;left=0;bottom=0;right=0;" parent="ALGpJ81ItxM9HrfpJqNL-10" vertex="1">
          <mxGeometry width="100" height="30" as="geometry">
            <mxRectangle width="100" height="30" as="alternateBounds" />
          </mxGeometry>
        </mxCell>
        <mxCell id="ALGpJ81ItxM9HrfpJqNL-12" value="" style="shape=partialRectangle;overflow=hidden;connectable=0;fillColor=none;top=0;left=0;bottom=0;right=0;align=left;spacingLeft=6;" parent="ALGpJ81ItxM9HrfpJqNL-10" vertex="1">
          <mxGeometry x="100" width="85" height="30" as="geometry">
            <mxRectangle width="85" height="30" as="alternateBounds" />
          </mxGeometry>
        </mxCell>
        <mxCell id="ALGpJ81ItxM9HrfpJqNL-13" style="shape=partialRectangle;overflow=hidden;connectable=0;fillColor=none;top=0;left=0;bottom=0;right=0;align=left;spacingLeft=6;" parent="ALGpJ81ItxM9HrfpJqNL-10" vertex="1">
          <mxGeometry x="185" width="105" height="30" as="geometry">
            <mxRectangle width="105" height="30" as="alternateBounds" />
          </mxGeometry>
        </mxCell>
        <mxCell id="ALGpJ81ItxM9HrfpJqNL-17" style="shape=partialRectangle;overflow=hidden;connectable=0;fillColor=none;top=0;left=0;bottom=0;right=0;align=left;spacingLeft=6;" parent="ALGpJ81ItxM9HrfpJqNL-10" vertex="1">
          <mxGeometry x="290" width="105" height="30" as="geometry">
            <mxRectangle width="105" height="30" as="alternateBounds" />
          </mxGeometry>
        </mxCell>
        <mxCell id="ALGpJ81ItxM9HrfpJqNL-14" value="" style="edgeStyle=entityRelationEdgeStyle;endArrow=ERzeroToMany;startArrow=ERone;endFill=1;startFill=0;entryX=0.991;entryY=0.602;entryDx=0;entryDy=0;entryPerimeter=0;" parent="1" target="C-vyLk0tnHw3VtMMgP7b-24" edge="1">
          <mxGeometry width="100" height="100" relative="1" as="geometry">
            <mxPoint x="430" y="460" as="sourcePoint" />
            <mxPoint x="438.94999999999993" y="199.99999999999997" as="targetPoint" />
            <Array as="points">
              <mxPoint x="397" y="460" />
              <mxPoint x="490" y="441.98" />
              <mxPoint x="470" y="391.98" />
              <mxPoint x="439" y="200" />
            </Array>
          </mxGeometry>
        </mxCell>
      </root>
    </mxGraphModel>
  </diagram>
</mxfile>
